<svg xmlns="http://www.w3.org/2000/svg" xmlns:xlink="http://www.w3.org/1999/xlink" width="500" zoomAndPan="magnify" viewBox="0 0 375 374.999991" height="500" preserveAspectRatio="xMidYMid meet" version="1.0"><defs><clipPath id="1bac215563"><path d="M 18.09375 0 L 357 0 L 357 375 L 18.09375 375 Z M 18.09375 0 " clip-rule="nonzero"/></clipPath><clipPath id="27ca04764e"><path d="M 18.09375 0 L 357.09375 0 L 357.09375 375 L 18.09375 375 Z M 18.09375 0 " clip-rule="nonzero"/></clipPath></defs><g clip-path="url(#27ca04764e)"><rect x="-37.5" width="450" fill="none" y="-37.499999" height="449.999989" fill-opacity="1"/><rect x="-37.5" width="450" fill="none" y="-37.499999" height="449.999989" fill-opacity="1"/></g><path fill="#ff6060" d="M 249.140625 246.933594 L 249.140625 335.363281 L 286.628906 313.257812 L 286.628906 224.824219 Z M 249.140625 246.933594 " fill-opacity="1" fill-rule="nonzero"/><path fill="#ff6060" d="M 352.550781 138.988281 L 198.726562 49.257812 L 113.414062 -0.164062 L 29.390625 146.792969 L 30.683594 284.644531 L 183.214844 374.378906 L 198.726562 365.273438 L 198.726562 235.226562 L 267.238281 114.28125 L 337.039062 154.59375 L 337.039062 284.644531 L 352.550781 275.539062 Z M 352.550781 138.988281 " fill-opacity="1" fill-rule="nonzero"/></svg>